<svg width="66" height="25" viewBox="0 0 66 25" fill="none" xmlns="http://www.w3.org/2000/svg">
<path fill-rule="evenodd" clip-rule="evenodd" d="M20.694 0.514772C20.6876 0.54145 20.685 5.81854 20.6882 12.2416L20.6941 23.9199L22.4895 23.9254L24.285 23.9309V20.1675V16.404H24.8629H25.4408L25.5484 16.5388C25.6453 16.6603 26.0723 17.1911 26.8276 18.1293C27.1009 18.4687 27.8473 19.397 28.4924 20.1997C28.6878 20.4428 28.9492 20.7667 29.0734 20.9194C29.1976 21.0721 29.3574 21.2713 29.4286 21.3621C29.5444 21.5099 30.3352 22.4931 30.818 23.0896C30.9188 23.2142 31.1117 23.4544 31.2467 23.6234L31.4922 23.9307H33.7465H36.0007L35.9397 23.8498C35.9061 23.8054 35.6118 23.439 35.2856 23.0357C34.9595 22.6324 34.6097 22.1999 34.5084 22.0745C34.0636 21.524 33.8792 21.296 33.7074 21.0839C33.6065 20.9594 33.0691 20.2946 32.5131 19.6066C31.9572 18.9186 31.4195 18.2538 31.3182 18.1293C30.9881 17.7231 30.7709 17.4548 30.5437 17.1724C30.4208 17.0197 30.2209 16.7722 30.0995 16.6224C29.9023 16.3793 29.3322 15.6757 28.7181 14.9177C28.3417 14.4531 28.295 14.3898 28.3065 14.3597C28.3127 14.3435 28.4277 14.183 28.562 14.003C28.7866 13.7021 29.026 13.3793 29.3966 12.8778C29.4755 12.7711 29.6514 12.5333 29.7875 12.3494C29.9236 12.1656 30.4654 11.4329 30.9916 10.7212C31.5178 10.0095 32.0279 9.32041 32.1252 9.18994C32.3027 8.95184 32.7179 8.39122 33.0596 7.92829C33.2418 7.68137 33.3898 7.48162 33.9223 6.76415C34.0762 6.55683 34.1974 6.3797 34.1918 6.37056C34.1861 6.36141 33.2852 6.35393 32.1897 6.35393H30.1978L30.1349 6.4348C30.1003 6.47929 29.9234 6.72433 29.7419 6.97936C29.5604 7.23438 29.363 7.51098 29.3031 7.59401C29.1241 7.84254 28.2769 9.02584 28.1451 9.2115C28.0778 9.3064 27.7962 9.69945 27.5193 10.0849C27.2425 10.4705 26.9404 10.8926 26.8481 11.0231C26.7557 11.1536 26.3812 11.6776 26.0158 12.1877L25.3513 13.1151L24.8182 13.1208L24.285 13.1266V6.79641V0.466248H22.4953H20.7057L20.694 0.514772ZM36.8856 10.457C36.8916 19.8549 36.8942 20.4624 36.9298 20.6957C37.0536 21.5074 37.297 22.0992 37.7282 22.6375C38.2032 23.2305 38.8977 23.6412 39.7275 23.8199C40.2332 23.9288 40.2841 23.9307 42.7039 23.9307H44.9673V22.3251V20.7194L43.2582 20.7112C41.4267 20.7024 41.4267 20.7024 41.1262 20.5894C40.7882 20.4624 40.6211 20.2449 40.5109 19.7887C40.4743 19.637 40.4718 19.3527 40.4656 14.6085L40.4591 9.58892H42.7134H44.9676L44.9621 7.97681L44.9566 6.36471L42.7082 6.35921L40.4599 6.35373V3.40998V0.466248H38.6696H36.8794L36.8856 10.457ZM8.71388 6.04365C7.67399 6.10449 6.62622 6.32641 5.74848 6.67178C4.86526 7.0193 4.09932 7.45874 3.38693 8.02665C2.98618 8.34614 2.32072 9.02049 2.00175 9.43027C1.09932 10.5897 0.495565 11.9575 0.251518 13.3954C0.165424 13.9026 0.132794 14.2012 0.110041 14.6894C0.0606535 15.7497 0.188091 16.8921 0.461339 17.8382C1.23914 20.5316 3.12954 22.5986 5.76439 23.6365C6.22633 23.8185 7.01416 24.0344 7.5385 24.1229C8.41051 24.2699 9.54377 24.2913 10.4392 24.1776C12.1597 23.9591 13.869 23.2112 15.1407 22.1205C16.5346 20.925 17.4875 19.3867 17.9555 17.5766C18.1699 16.7472 18.2622 15.8837 18.2397 14.916C18.2146 13.8346 18.0868 13.0702 17.7676 12.092C17.163 10.2389 15.9586 8.65304 14.3316 7.56783C13.109 6.75237 11.665 6.24286 10.1265 6.08402C9.80763 6.05111 8.98728 6.02767 8.71388 6.04365ZM54.0145 6.043C53.3287 6.09414 52.9137 6.15974 52.3344 6.30864C49.6069 7.00964 47.366 9.09424 46.374 11.8534C45.8674 13.2622 45.6987 14.8864 45.8966 16.4471C46.1164 18.1805 46.8189 19.8264 47.9004 21.142C48.1548 21.4515 48.7015 22.0085 48.9787 22.2405C49.8626 22.9804 50.8035 23.5067 51.8579 23.8508C52.8063 24.1604 53.6074 24.2743 54.64 24.2466C55.5977 24.2208 56.2465 24.111 57.0554 23.8376C57.4797 23.6942 57.5971 23.645 57.9936 23.4443C58.9327 22.969 59.7279 22.2783 60.3757 21.3754L60.4911 21.2146L60.5157 21.3596C60.5738 21.7023 60.7326 22.1659 60.886 22.4411C61.0653 22.7626 61.3898 23.1155 61.6894 23.3147C62.0552 23.5579 62.4167 23.7091 62.8707 23.8087C63.3504 23.9139 63.4411 23.9199 64.539 23.9199H65.5742V22.324V20.7281L65.089 20.7154C64.5627 20.7016 64.3994 20.6757 64.1992 20.5743C64.034 20.4907 63.9568 20.4254 63.8722 20.2979C63.775 20.1515 63.7174 20.0034 63.6719 19.7834C63.6382 19.6203 63.6345 19.0953 63.6235 12.9857L63.6117 6.36471H61.9079H60.2041L60.1986 7.63488L60.193 8.90506L60.0814 8.74556C59.5761 8.02333 58.8101 7.34942 57.9936 6.90877C57.1981 6.47949 56.1606 6.17214 55.1791 6.07501C54.9251 6.04988 54.1925 6.02974 54.0145 6.043ZM9.9578 9.51139C10.2831 9.56015 10.7331 9.66311 10.9608 9.7409C12.8584 10.389 14.1997 12.063 14.5026 14.161C14.66 15.252 14.5502 16.4011 14.1992 17.3362C13.8189 18.3492 13.2279 19.164 12.433 19.7712C10.9997 20.8662 8.9955 21.1446 7.22579 20.4947C6.38946 20.1876 5.61662 19.6327 5.04377 18.9282C4.64058 18.4322 4.22995 17.6632 4.05865 17.0833C3.86912 16.4416 3.79651 15.9724 3.7816 15.2933C3.76592 14.5796 3.82504 14.0788 4.00257 13.4214C4.30209 12.3122 4.94872 11.303 5.80239 10.6125C6.19064 10.2985 6.80735 9.94876 7.26605 9.78248C7.62749 9.65148 8.19031 9.52648 8.61683 9.48249C8.88877 9.45445 9.69359 9.47179 9.9578 9.51139ZM55.6817 9.51177C56.2948 9.60358 56.7886 9.75578 57.3034 10.0116C58.3026 10.508 59.0744 11.2892 59.5908 12.3268C59.85 12.8477 59.9981 13.291 60.1164 13.8998C60.2037 14.3495 60.2257 14.6105 60.2238 15.1747C60.2214 15.8686 60.1661 16.2828 59.9902 16.9246C59.6576 18.138 58.9527 19.1663 57.9504 19.9004C57.6734 20.1033 57.1832 20.361 56.8185 20.4954C55.5865 20.9493 54.2679 20.9583 53.0218 20.5212C52.4727 20.3286 52.0022 20.0662 51.5347 19.6916C51.2936 19.4984 50.8663 19.0633 50.6781 18.8194C50.0903 18.0576 49.6907 17.075 49.5467 16.0373C49.4999 15.6998 49.4928 14.6986 49.5348 14.3551C49.7068 12.9498 50.3341 11.6837 51.288 10.8168C52.1152 10.0649 53.1051 9.6253 54.2729 9.4912C54.599 9.45374 55.3694 9.465 55.6817 9.51177Z" fill="#95928E"/>
</svg>
